<mxfile host="app.diagrams.net" modified="2022-04-19T21:38:23.452Z" agent="5.0 (Macintosh; Intel Mac OS X 10_15_7) AppleWebKit/537.36 (KHTML, like Gecko) Chrome/100.0.4896.127 Safari/537.36" etag="K9fCbBvM9F5BvXJrHNom" version="17.4.5" type="github">
  <diagram id="5q4YxLaBeibkHT9I8YBr" name="Page-1">
    <mxGraphModel dx="2675" dy="2151" grid="1" gridSize="10" guides="1" tooltips="1" connect="1" arrows="1" fold="1" page="1" pageScale="1" pageWidth="850" pageHeight="1100" math="0" shadow="0">
      <root>
        <mxCell id="0" />
        <mxCell id="1" parent="0" />
        <mxCell id="SYEr-NdiUXQroPyqY3gl-1" value="2 Weeks Sprint DEV VIEW" style="swimlane;fillColor=#dae8fc;strokeColor=#6c8ebf;swimlaneFillColor=#E3E3E3;" vertex="1" parent="1">
          <mxGeometry x="-580" y="-60" width="1540" height="610" as="geometry" />
        </mxCell>
        <mxCell id="SYEr-NdiUXQroPyqY3gl-2" value="First Week" style="swimlane;resizable=0;" vertex="1" parent="SYEr-NdiUXQroPyqY3gl-1">
          <mxGeometry x="70" y="109.41" width="680" height="450" as="geometry" />
        </mxCell>
        <mxCell id="SYEr-NdiUXQroPyqY3gl-11" value="Friday" style="swimlane;" vertex="1" parent="SYEr-NdiUXQroPyqY3gl-2">
          <mxGeometry x="540" y="20" width="140" height="430" as="geometry" />
        </mxCell>
        <mxCell id="SYEr-NdiUXQroPyqY3gl-12" value="Monday-Tuesday-Wedsnesday" style="swimlane;" vertex="1" parent="SYEr-NdiUXQroPyqY3gl-2">
          <mxGeometry y="20" width="280" height="430" as="geometry" />
        </mxCell>
        <mxCell id="SYEr-NdiUXQroPyqY3gl-42" value="New Features" style="dashed=0;html=1;rounded=1;strokeColor=#008364;fontSize=12;align=center;fontStyle=1;strokeWidth=2;fontColor=#008364" vertex="1" parent="SYEr-NdiUXQroPyqY3gl-12">
          <mxGeometry y="130.59" width="200" height="20" as="geometry" />
        </mxCell>
        <mxCell id="SYEr-NdiUXQroPyqY3gl-13" value="Thursday" style="swimlane;" vertex="1" parent="SYEr-NdiUXQroPyqY3gl-2">
          <mxGeometry x="280" y="20" width="260" height="430" as="geometry" />
        </mxCell>
        <mxCell id="SYEr-NdiUXQroPyqY3gl-14" value="Second Week" style="swimlane;" vertex="1" parent="SYEr-NdiUXQroPyqY3gl-1">
          <mxGeometry x="790" y="109.40999999999997" width="680" height="450" as="geometry" />
        </mxCell>
        <mxCell id="SYEr-NdiUXQroPyqY3gl-15" value="Friday" style="swimlane;" vertex="1" parent="SYEr-NdiUXQroPyqY3gl-14">
          <mxGeometry x="540" y="20" width="140" height="430" as="geometry" />
        </mxCell>
        <mxCell id="SYEr-NdiUXQroPyqY3gl-16" value="Monday-Tuesday-Wedsnesday" style="swimlane;" vertex="1" parent="SYEr-NdiUXQroPyqY3gl-14">
          <mxGeometry y="20" width="280" height="430" as="geometry" />
        </mxCell>
        <mxCell id="SYEr-NdiUXQroPyqY3gl-17" value="Thursday" style="swimlane;" vertex="1" parent="SYEr-NdiUXQroPyqY3gl-14">
          <mxGeometry x="280" y="20" width="260" height="430" as="geometry" />
        </mxCell>
        <mxCell id="SYEr-NdiUXQroPyqY3gl-31" value="New components" style="dashed=0;html=1;rounded=1;strokeColor=#008364;fontSize=12;align=center;fontStyle=1;strokeWidth=2;fontColor=#008364" vertex="1" parent="1">
          <mxGeometry x="-520" y="710" width="500" height="53" as="geometry" />
        </mxCell>
        <mxCell id="SYEr-NdiUXQroPyqY3gl-43" value="Unit Testing Features" style="dashed=0;html=1;rounded=1;fillColor=#0057D8;strokeColor=#0057D8;fontSize=12;align=center;fontStyle=1;strokeWidth=2;fontColor=#ffffff" vertex="1" parent="1">
          <mxGeometry x="-20" y="711.5" width="380" height="50" as="geometry" />
        </mxCell>
        <mxCell id="SYEr-NdiUXQroPyqY3gl-44" value="MERGE PR" style="dashed=0;html=1;rounded=1;strokeColor=#FFAB00;fontSize=12;align=center;fontStyle=1;strokeWidth=2;fontColor=#42526E" vertex="1" parent="1">
          <mxGeometry x="360" y="710" width="180" height="50" as="geometry" />
        </mxCell>
        <mxCell id="SYEr-NdiUXQroPyqY3gl-53" value="QA E2e" style="dashed=0;html=1;rounded=1;fillColor=#6554C0;strokeColor=#6554C0;fontSize=12;align=center;fontStyle=1;strokeWidth=2;fontColor=#ffffff" vertex="1" parent="1">
          <mxGeometry x="540" y="710" width="80" height="50" as="geometry" />
        </mxCell>
      </root>
    </mxGraphModel>
  </diagram>
</mxfile>
